<svg width="85" height="100" viewBox="0 0 85 100" fill="none" xmlns="http://www.w3.org/2000/svg">
<path d="M80.1477 22.293L57.0886 31.2406L50.7458 26.6169L25.0709 33.7558L15.2048 24.5085L14.7009 32.7533L2.51567 23.8021L8.75839 49.036L0 71.0483L21.8513 99.9997L33.0289 72.1543L21.7513 76.678L16.8164 64.2127L25.7785 68.3333L77.3318 44.6085L72.397 55.4649L52.5611 65.4186L42.6949 98.6939L55.0803 67.9338L74.8162 57.9801L81.7629 43.3028L84.9861 25.9106L80.1513 22.293H80.1477ZM15.7301 45.265L4.22733 26.5349L18.9211 39.86L15.7301 45.265ZM20.9401 36.5849L16.2875 26.6491L23.7809 34.2767L20.9401 36.5849ZM69.3596 29.075L80.137 24.776L82.8027 26.8346L82.3203 30.3344L69.3596 29.075Z" fill="#FFD569"/>
<path d="M14.1045 13.3299L25.8094 28.4803L46.8797 22.4901L47.7713 4.14104L40.339 17.4709L28.5342 0L28.8373 20.8051L14.1045 13.3299Z" fill="#FFD569"/>
</svg>
