<?xml version="1.0" encoding="UTF-8"?><svg xmlns="http://www.w3.org/2000/svg" width="512" height="512" viewBox="0 0 512 512" fill="none" version="1.2" baseProfile="tiny-ps"><title>Hypehound</title><path d="M464 54H54C57.5936 54 55.4973 327.333 54 464H464V54Z" fill="black" stroke="black"></path><path d="M290.132 154.342L210.089 176.223L167.037 117.387L222.455 148.268L223.261 68.2159L266.627 136.521L295.624 85.7985L290.132 154.342Z" fill="#FFD569" stroke="black" stroke-width="3"></path><path d="M172.5 237.5L123 157L190 209.5L172.5 237.5Z" fill="#33F5B1"></path><path d="M190.5 208.5L171.5 160.5L205.5 196.5L190.5 208.5Z" fill="#33F5B1"></path><path d="M283.5 230.5L305.5 167.5L331 185L421.5 150L437.5 165L283.5 230.5Z" fill="#33F5B1"></path><path d="M197 358.5L177.5 311.5L211 326.5L423 231L402.5 267.5L331.5 301.5L291 405L197 446.5L238.5 341L197 358.5Z" fill="#33F5B1"></path><path d="M169 191.5L171 161.5L190 208.5L169 191.5Z" fill="white"></path><path d="M172.5 238C156 210.667 122.7 156 121.5 156L146 254.5L113 336L196.5 446.5L238 341.5L196.5 358L177.5 311.5L211 327L423.5 231L437 165L284 229.5L305.5 167.5L205.5 196.5L190.5 209L172.5 238Z" fill="white"></path><path d="M122 156L169.5 192.752M122 156L146 254.5L113 336L196.5 446.5M122 156L172.5 238L190.5 209M190.5 209L169.5 192.752M190.5 209L171 159.5M190.5 209L205.5 196.5M169.5 192.752L171 159.5M171 159.5L205.5 196.5M205.5 196.5L306 167.5M306 167.5L331 185L421.5 150L437.5 165M306 167.5L283.5 230L437.5 165M437.5 165L424 230M424 230L402.5 267.5L331 302L290.5 405.5L196.5 446.5M424 230L211 327L177 311L196.5 358.5L238 341.5L196.5 446.5" stroke="black" stroke-width="3"></path></svg>