<svg width="261" height="307" viewBox="0 0 261 307" fill="none" xmlns="http://www.w3.org/2000/svg">
<path d="M143.015 273.514L66.9109 306.511L48.5234 193.305L250.786 131.88L232.909 162.847L175.703 189.752L143.015 273.514Z" fill="#33F5B1"/>
<path d="M248.741 67.4089L261 79.5925L132.287 162.847L53.6298 174.522L7.15039 72.4854L65.8882 117.158L46.4792 75.0236L120.54 153.201L155.782 81.6231L175.191 95.8372L248.741 67.4089Z" fill="#33F5B1"/>
<path d="M66.91 306.511L0 217.673L26.5597 151.171L7.15069 72.4856L48.0117 138.987L66.91 107.006L155.783 81.6232L136.885 131.88L261 79.5927L250.785 131.88L78.6575 210.058L51.0763 196.859L66.91 235.948L101.131 221.734L66.91 306.511Z" fill="white"/>
<path d="M45.457 101.929L63.8445 116.143L67.9306 121.22L46.4786 75.0237L45.457 101.929Z" fill="white"/>
<path d="M143.337 68.297L79.3389 87.5959L43.4366 41.1181L88.7108 64.8243L87.6821 0.343109L124.036 54.4393L146.323 12.9851L143.337 68.297Z" fill="#FFD569"/>
</svg>
